<?xml version="1.0" encoding="UTF-8"?>
<svg id="Layer_1" data-name="Layer 1" xmlns="http://www.w3.org/2000/svg" viewBox="0 0 519.95 68.72">
  <path d="m60.69,66.92H23.04c-4.08,0-6.46-.34-10.54-.34-4.85,0-7.74,0-12.5.34v-.68c1.87-.68,2.98-1.53,4.17-3.15,1.7-1.87,1.62-9.01,1.62-9.86V9.71c0-.94-.77-2.98-1.79-4.51-.85-1.45-1.96-2.3-2.29-2.55v-.77h53.64l3.66,11.14-1.1-.17-.94-.94c-3.83-3.83-5.78-4.25-9.78-5.95-4.76-1.96-19.38-1.96-31.71-1.96h-1.62v27.2h20.49c4.08,0,7.74,0,10.63-1.87,2.04-1.45,3.23-2.81,4.34-5.19h.94c-.25,3.06-.34,5.02-.34,8.08s.08,4.85.34,7.91h-.94c-1.27-2.04-2.29-3.4-5.27-5.02-2.12-1.19-4.68-1.61-9.69-1.61H14.11l.68,22.61c.34,8.93,4.68,8.25,13.01,8.42,20.66.42,30.86-4.08,36.13-11.39l1.02-.17-4.25,13.94Z"/>
  <path d="m134.3,60.63c-5.95,4.17-11.56,7.31-24.31,7.99-20.49,1.19-41.06-10.63-41.06-34.09C68.93,14.22,85.6-.66,108.21.02c11.73.43,20.4,4.59,24.82,7.48l1.28.94-2.89,8.84-.93-.25-.34-.85c-2.13-5.61-6.63-13.18-22.02-14.45-20.32-1.62-28.99,15.05-29.41,31.79-.51,17.6,10.63,34.77,30.43,33.49,10.54-.68,18.19-4.85,23.04-14.03l.51-1.02.59-.25,2.12,8.16-1.1.77Z"/>
  <path d="m176.29,68.71c-19.64.42-37.23-14.79-37.15-34.43.17-19.47,15.98-33.83,36.98-33.92,20.66-.09,36.13,15.22,35.87,34.6-.17,19.04-15.47,33.49-35.7,33.75Zm-.25-66.81c-19.38-.17-26.86,16.15-26.86,32.47s7.57,32.98,26.95,32.56c19.72-.42,25.42-15.56,26.01-31.28.68-17.6-7.91-33.66-26.1-33.75Z"/>
  <path d="m293.76,66.92h-52.45c7.74-10.97,12.67-17.09,19.98-28.22,6.63-9.95,11.39-15.05,17.6-25.25l1.45-2.47c1.02-1.61,2.12-2.72,1.62-4.59-.43-2.04-4.17-2.04-4.25-2.04h-5.78c-7.06,0-14.62.94-20.4,3.57-2.98,1.36-4.68,2.64-6.8,4.93l-.85,1.02-1.02.08,3.74-12.07h49.05c-18.19,25.25-.68.17-17.6,25.25-18.45,27.29-11.22,17-18.28,28.14l-.93,1.44c-.94,1.62-1.79,3.15-1.7,4.51.34,3.91,5.61,3.23,9.52,3.49,9.1.42,22.87-2.55,29.16-9.52l1.79-2.04.68-.17-4.51,13.94Z"/>
  <path d="m338.72,68.71c-19.64.42-37.23-14.79-37.15-34.43.17-19.47,15.98-33.83,36.98-33.92,20.66-.09,36.13,15.22,35.87,34.6-.17,19.04-15.47,33.49-35.7,33.75Zm-.25-66.81c-19.38-.17-26.86,16.15-26.86,32.47s7.57,32.98,26.95,32.56c19.72-.42,25.42-15.56,26.01-31.28.68-17.6-7.91-33.66-26.1-33.75Z"/>
  <path d="m447.61,5.72c-.59.68-2.72,3.57-2.72,10.71v51.85h-1.28c-6.63-7.57-10.29-12.16-17.09-19.55-14.28-15.47-36.81-40.72-36.81-39.95l.77,43.61c.08,4.93,1.87,10.03,2.38,10.71,1.36,1.7,2.72,2.38,4.76,3.15l.08.68c-2.98-.25-4.85-.34-7.82-.34-3.57,0-5.7.08-9.18.34v-.68c1.79-.85,2.81-1.7,4.17-3.15,1.79-2.12,2.63-8.93,2.63-10.8l-.08-41.65c0-2.12-1.79-4.51-2.46-5.27-1.02-1.02-2.38-2.47-2.81-2.72v-.77c2.89.34,4.68.34,7.65.34,2.3,0,3.74-.08,6.04-.34,1.53,2.04,2.55,3.32,4.17,5.36,2.12,2.72,42.16,45.82,42.16,44.8l-.25-35.53c0-1.87-1.36-8.42-3.15-10.54-1.19-1.45-2.21-2.47-3.91-3.32v-.77c3.32.34,5.36.43,8.76.43,2.81,0,4.59-.08,7.48-.43v.77c-1.45.85-1.96,1.02-3.49,3.06Z"/>
  <path d="m515.69,66.92h-37.66c-4.08,0-6.46-.34-10.54-.34-4.85,0-7.74,0-12.5.34v-.68c1.87-.68,2.97-1.53,4.17-3.15,1.7-1.87,1.62-9.01,1.62-9.86V9.71c0-.94-.76-2.98-1.79-4.51-.85-1.45-1.96-2.3-2.29-2.55v-.77h53.64l3.66,11.14-1.1-.17-.94-.94c-3.83-3.83-5.78-4.25-9.78-5.95-4.76-1.96-19.38-1.96-31.71-1.96h-1.62v27.2h20.49c4.08,0,7.74,0,10.63-1.87,2.04-1.45,3.23-2.81,4.33-5.19h.94c-.26,3.06-.34,5.02-.34,8.08s.08,4.85.34,7.91h-.94c-1.28-2.04-2.29-3.4-5.27-5.02-2.12-1.19-4.67-1.61-9.69-1.61h-20.23l.68,22.61c.34,8.93,4.68,8.25,13.01,8.42,20.66.42,30.86-4.08,36.13-11.39l1.02-.17-4.25,13.94Z"/>
</svg>